<?xml version="1.0" standalone="no"?>
<!DOCTYPE svg PUBLIC "-//W3C//DTD SVG 20010904//EN"
 "http://www.w3.org/TR/2001/REC-SVG-20010904/DTD/svg10.dtd">
<svg version="1.0" xmlns="http://www.w3.org/2000/svg"
 width="300.000000pt" height="300.000000pt" viewBox="0 0 300.000000 300.000000"
 preserveAspectRatio="xMidYMid meet">
<metadata>
Created by potrace 1.10, written by Peter Selinger 2001-2011
</metadata>
<g transform="translate(0.000000,300.000000) scale(0.100000,-0.100000)"
fill="#000000" stroke="none">
<path d="M473 2766 c-95 -30 -160 -84 -206 -170 -22 -41 -22 -43 -27 -763 l-5
-722 120 -60 c261 -130 527 -212 838 -258 161 -25 558 -24 722 0 208 31 401
83 593 158 78 31 112 28 112 -11 0 -57 -298 -213 -545 -285 -189 -55 -310 -70
-560 -70 -245 0 -301 6 -490 55 -220 57 -410 141 -595 265 -108 72 -213 162
-205 176 4 5 2 17 -4 26 -9 17 -10 17 -16 0 -7 -17 -6 -22 20 -67 12 -20 15
-78 15 -295 0 -264 1 -271 24 -321 33 -72 86 -127 154 -160 l57 -29 1031 0
1031 0 69 35 c49 25 79 49 106 85 56 73 68 125 68 291 0 134 2 147 29 216 62
153 61 288 0 288 -23 0 -24 -13 -4 -30 20 -17 20 -121 -1 -180 -27 -76 -33
-101 -23 -95 15 10 10 -3 -17 -48 -49 -78 -124 -143 -124 -106 0 5 18 63 40
128 22 64 43 138 46 163 6 42 4 47 -21 64 -28 18 -60 19 -310 10 -62 -2 -51
24 25 61 82 40 181 57 282 49 l79 -7 -3 693 -3 693 -24 47 c-32 66 -93 125
-159 156 l-57 27 -1010 2 c-816 2 -1018 -1 -1052 -11z m2060 -37 c10 -10 23
-19 29 -19 7 0 3 7 -8 15 -23 18 -14 19 23 3 59 -25 112 -78 144 -144 18 -37
28 -69 23 -72 -5 -4 -9 -269 -9 -657 l0 -650 -95 -6 c-168 -10 -310 -69 -310
-129 0 -33 37 -42 218 -53 7 0 9 -3 5 -7 -16 -13 -160 -69 -233 -90 -41 -12
-87 -26 -101 -32 -15 -5 -37 -11 -50 -13 -13 -3 -78 -16 -144 -29 -159 -33
-269 -41 -514 -39 -177 2 -305 13 -436 39 -11 2 -33 6 -50 9 -70 12 -93 17
-145 32 -30 8 -64 18 -75 23 -11 4 -47 15 -80 25 -33 9 -73 23 -90 30 -16 7
-48 20 -70 28 -105 39 -255 114 -275 136 -13 14 -15 65 -15 324 1 169 -3 307
-7 307 -5 0 -3 8 4 19 9 14 9 35 0 89 -7 42 -12 186 -12 356 0 260 2 290 20
338 11 29 33 69 49 88 35 43 115 88 173 98 24 5 486 6 1028 4 952 -4 986 -5
1003 -23z m138 -1719 c10 -6 19 -20 19 -31 0 -20 -28 -114 -61 -207 -26 -71
-24 -90 6 -98 35 -9 67 -8 89 1 17 8 18 2 14 -101 -3 -98 -7 -114 -33 -163
-31 -56 -88 -106 -148 -128 -43 -15 -2033 -18 -2089 -3 -53 15 -118 68 -153
125 l-30 48 -3 249 c-2 170 0 248 7 248 6 0 42 -23 81 -50 39 -28 74 -50 78
-50 5 0 18 -9 29 -19 19 -18 164 -94 253 -134 118 -52 320 -113 415 -124 22
-3 47 -9 55 -13 14 -7 199 -25 243 -23 9 0 65 1 123 2 77 1 103 4 98 13 -5 7
-3 8 7 2 16 -10 111 -7 154 6 17 5 50 11 75 14 182 23 496 144 661 257 92 62
111 107 65 154 -13 13 -21 26 -18 29 9 9 42 7 63 -4z"/>
<path d="M768 2733 c100 -2 264 -2 365 0 100 1 18 2 -183 2 -201 0 -283 -1
-182 -2z"/>
<path d="M1438 2733 c68 -2 176 -2 240 0 64 1 9 3 -123 3 -132 0 -185 -2 -117
-3z"/>
<path d="M1978 2733 c100 -2 264 -2 365 0 100 1 18 2 -183 2 -201 0 -283 -1
-182 -2z"/>
<path d="M2657 2650 c18 -19 41 -56 53 -82 22 -50 37 -67 20 -23 -19 50 -39
81 -72 110 l-33 30 32 -35z"/>
<path d="M1375 2494 c-216 -45 -346 -144 -405 -305 -30 -80 -27 -122 11 -153
20 -17 43 -26 67 -27 20 0 46 -2 57 -4 49 -9 153 -7 173 4 12 6 33 33 47 60
45 89 111 124 193 102 54 -15 82 -59 82 -129 0 -28 -4 -53 -8 -56 -10 -6 -46
-13 -107 -20 -256 -32 -371 -78 -469 -186 -150 -166 -150 -451 0 -605 81 -84
209 -122 355 -104 116 13 169 34 244 93 22 18 46 36 53 40 8 5 35 -15 76 -58
56 -58 68 -66 101 -66 31 0 50 10 104 54 109 89 161 145 161 174 0 15 -16 53
-35 84 -61 102 -63 117 -64 409 -1 320 -10 408 -47 475 -57 105 -158 179 -285
209 -59 14 -253 19 -304 9z m253 -34 c34 -6 87 -20 118 -31 73 -27 164 -112
193 -179 30 -69 41 -219 36 -465 -5 -257 2 -307 61 -398 25 -38 44 -75 42 -82
-5 -24 -210 -195 -232 -195 -20 0 -102 83 -141 143 l-18 27 -46 -43 c-104 -98
-190 -131 -336 -130 -107 0 -155 12 -218 54 -154 102 -196 367 -86 541 86 134
221 199 474 228 55 6 115 14 133 17 l32 5 0 67 c-1 127 -54 191 -159 191 -97
0 -169 -51 -193 -136 -5 -19 -16 -38 -25 -41 -17 -7 -241 13 -268 23 -24 10
-13 80 23 159 88 187 340 288 610 245z"/>
<path d="M1470 1734 c-118 -31 -180 -106 -180 -217 0 -69 29 -131 72 -153 40
-21 117 -18 156 6 39 24 88 98 107 164 8 27 15 87 15 133 l0 83 -57 -1 c-32 0
-83 -7 -113 -15z m130 -94 c0 -123 -56 -227 -135 -249 -41 -11 -88 2 -113 31
-20 25 -31 105 -20 148 20 77 118 138 226 139 l42 1 0 -70z"/>
</g>
</svg>
